<svg width="22" height="22" viewBox="0 0 22 22" fill="none" xmlns="http://www.w3.org/2000/svg">
<path d="M17.875 11.4029V9.625H16.5V11.6875C16.5 11.8698 16.5725 12.0447 16.7014 12.1736L18.5625 14.0346V15.125H3.4375V14.0346L5.29856 12.1736C5.4275 12.0447 5.49996 11.8698 5.5 11.6875V8.9375C5.49821 7.97148 5.75135 7.02209 6.23388 6.18521C6.71641 5.34833 7.41123 4.6536 8.24817 4.17117C9.0851 3.68875 10.0345 3.43571 11.0005 3.43762C11.9666 3.43954 12.915 3.69633 13.75 4.18206V2.64412C13.0956 2.35436 12.3995 2.16967 11.6875 2.09687V0.6875H10.3125V2.09687C8.61752 2.26939 7.04671 3.06427 5.90382 4.3278C4.76092 5.59133 4.12713 7.23376 4.125 8.9375V11.4029L2.26394 13.2639C2.135 13.3928 2.06254 13.5677 2.0625 13.75V15.8125C2.0625 15.9948 2.13493 16.1697 2.26386 16.2986C2.3928 16.4276 2.56766 16.5 2.75 16.5H7.5625V17.1875C7.5625 18.0992 7.92466 18.9735 8.56932 19.6182C9.21398 20.2628 10.0883 20.625 11 20.625C11.9117 20.625 12.786 20.2628 13.4307 19.6182C14.0753 18.9735 14.4375 18.0992 14.4375 17.1875V16.5H19.25C19.4323 16.5 19.6072 16.4276 19.7361 16.2986C19.8651 16.1697 19.9375 15.9948 19.9375 15.8125V13.75C19.9375 13.5677 19.865 13.3928 19.7361 13.2639L17.875 11.4029ZM13.0625 17.1875C13.0625 17.7345 12.8452 18.2591 12.4584 18.6459C12.0716 19.0327 11.547 19.25 11 19.25C10.453 19.25 9.92839 19.0327 9.54159 18.6459C9.1548 18.2591 8.9375 17.7345 8.9375 17.1875V16.5H13.0625V17.1875Z" fill="#999999"/>
<path d="M17.875 8.25C19.3938 8.25 20.625 7.01878 20.625 5.5C20.625 3.98122 19.3938 2.75 17.875 2.75C16.3562 2.75 15.125 3.98122 15.125 5.5C15.125 7.01878 16.3562 8.25 17.875 8.25Z" fill="#1677FF"/>
</svg>
