<svg width="19" height="19" viewBox="0 0 19 19" fill="none" xmlns="http://www.w3.org/2000/svg">
<path d="M15.5833 0C17.1021 0 18.3333 1.23122 18.3333 2.75V15.5833C18.3333 17.1021 17.1021 18.3333 15.5833 18.3333H2.75C1.23122 18.3333 0 17.1021 0 15.5833V2.75C0 1.23122 1.23122 0 2.75 0H15.5833ZM15.5833 1.375H2.75C2.01773 1.375 1.41916 1.94742 1.37733 2.66921L1.375 2.75V15.5833C1.375 16.3156 1.94742 16.9142 2.66921 16.956L2.75 16.9583H15.5833C16.3156 16.9583 16.9142 16.3859 16.956 15.6641L16.9583 15.5833V2.75C16.9583 2.01773 16.3859 1.41916 15.6641 1.37733L15.5833 1.375ZM9.67081 4.76667L9.67037 8.25H13.1542C13.2554 8.25 13.3375 8.33208 13.3375 8.43333V9.44167C13.3375 9.54292 13.2554 9.625 13.1542 9.625H9.67037L9.67081 13.1083C9.67085 13.2096 9.58877 13.2917 9.48752 13.2917C9.48752 13.2917 9.48751 13.2917 9.4875 13.2917H8.47917C8.37792 13.2916 8.29585 13.2096 8.29581 13.1083L8.29537 9.625H4.8125C4.71125 9.625 4.62917 9.54292 4.62917 9.44167V8.43333C4.62917 8.33208 4.71125 8.25 4.8125 8.25H8.29537L8.29581 4.76667C8.29585 4.66542 8.37792 4.58336 8.47917 4.58333H9.4875C9.58875 4.58331 9.67083 4.66539 9.67083 4.76664C9.67083 4.76665 9.67083 4.76666 9.67081 4.76667Z" fill="#999999"/>
</svg>
